<?xml version="1.0" standalone="no"?>
<!DOCTYPE svg PUBLIC "-//W3C//DTD SVG 20010904//EN"
 "http://www.w3.org/TR/2001/REC-SVG-20010904/DTD/svg10.dtd">
<svg version="1.0" xmlns="http://www.w3.org/2000/svg"
 width="1024.000000pt" height="1024.000000pt" viewBox="0 0 1024.000000 1024.000000"
 preserveAspectRatio="xMidYMid meet">

<g transform="translate(0.000000,1024.000000) scale(0.100000,-0.100000)"
fill="#000000" stroke="none">
<path d="M4168 9261 c-71 -28 -107 -58 -153 -130 -98 -153 -196 -489 -273
-942 -48 -277 -47 -256 -14 -273 48 -25 381 -115 536 -145 342 -67 672 -91
990 -72 116 6 262 19 324 27 62 8 121 14 130 12 25 -6 -263 -74 -409 -97 -494
-80 -949 -40 -1430 125 -433 148 -545 184 -649 207 -280 62 -410 58 -479 -16
-31 -35 -32 -106 -1 -167 43 -84 210 -221 365 -298 88 -44 264 -118 312 -132
l42 -13 -58 -67 c-217 -252 -358 -514 -435 -813 -78 -299 -79 -678 -2 -980
157 -617 645 -1155 1244 -1373 422 -153 954 -153 1369 2 190 70 439 212 576
326 l49 41 95 -95 95 -95 -12 -42 c-22 -83 -27 -77 382 -480 209 -206 398
-389 421 -407 121 -93 289 -83 408 24 70 63 99 126 99 218 0 122 -2 125 -451
564 -255 249 -413 397 -435 406 -20 9 -51 14 -69 12 -29 -3 -44 8 -139 96 -58
54 -106 105 -106 112 0 8 18 37 39 65 145 182 267 461 328 744 26 122 28 145
27 370 0 223 -2 249 -27 370 -67 315 -203 608 -393 846 -36 45 -50 71 -42 73
318 100 497 185 684 323 308 226 255 467 -93 424 -119 -14 -322 -61 -505 -117
-80 -24 -150 -44 -155 -44 -6 0 -20 62 -32 138 -61 381 -136 733 -196 917 -87
266 -186 370 -350 370 -89 -1 -137 -17 -355 -120 -262 -124 -305 -136 -415
-111 -84 20 -165 49 -345 127 -248 106 -385 131 -492 90z m-271 -2046 c251
-63 475 -99 704 -115 78 -5 147 -14 153 -20 7 -7 -6 -10 -42 -10 -130 0 -355
-66 -498 -146 -212 -119 -392 -338 -487 -594 -44 -118 -53 -165 -37 -185 15
-18 74 -20 88 -2 5 6 25 56 42 110 53 159 161 329 277 438 368 344 1016 367
1439 51 270 -202 413 -453 469 -824 7 -45 32 -62 68 -49 34 13 41 27 38 80 -2
59 -43 229 -74 311 -58 155 -164 328 -265 433 -168 175 -394 303 -628 357
l-79 18 95 1 c229 2 521 34 770 83 85 17 164 31 174 32 24 1 135 -125 216
-244 140 -208 245 -484 279 -733 14 -101 14 -353 0 -454 -40 -297 -178 -612
-367 -843 -355 -432 -859 -659 -1417 -637 -428 17 -793 174 -1107 476 -350
336 -528 750 -528 1222 1 467 151 848 464 1176 54 57 102 103 107 103 5 0 70
-16 146 -35z"/>
<path d="M4620 6849 c-175 -37 -317 -110 -445 -231 -122 -115 -209 -249 -268
-415 -30 -82 -68 -158 -95 -190 -32 -36 -93 -73 -123 -73 -29 0 -59 -31 -59
-61 0 -24 47 -59 79 -59 46 0 125 45 173 99 52 57 86 124 142 271 53 140 100
214 201 315 105 106 192 161 320 204 338 113 703 18 970 -253 158 -159 245
-330 276 -538 46 -316 -112 -721 -413 -1055 -54 -60 -50 -99 11 -118 21 -6 33
2 90 63 176 185 350 505 402 735 85 382 -31 755 -322 1033 -111 105 -288 209
-430 252 -150 46 -350 54 -509 21z"/>
<path d="M4655 6640 c-135 -35 -232 -89 -334 -185 -98 -92 -156 -187 -230
-377 -49 -124 -99 -206 -163 -265 -53 -48 -86 -67 -183 -103 -72 -27 -82 -39
-71 -86 9 -35 45 -39 123 -14 187 60 300 176 383 390 76 197 116 267 205 355
133 133 255 185 434 185 156 0 271 -37 406 -130 223 -155 358 -397 356 -640 0
-200 -81 -400 -260 -648 -75 -105 -227 -276 -303 -342 -51 -44 -61 -76 -33
-104 45 -45 74 -28 216 127 301 328 457 606 489 875 24 195 -38 420 -164 596
-203 285 -580 443 -871 366z"/>
<path d="M4699 6426 c-178 -50 -318 -194 -401 -414 -55 -147 -98 -226 -165
-300 -91 -102 -187 -165 -338 -222 -64 -23 -70 -28 -73 -56 -2 -20 4 -36 18
-49 19 -17 25 -18 73 -5 135 34 276 120 381 231 93 99 141 179 195 329 23 63
52 130 64 150 61 101 156 182 250 214 67 23 199 21 270 -3 157 -54 301 -202
359 -369 32 -94 32 -237 -1 -342 -39 -127 -117 -265 -240 -425 -67 -88 -268
-292 -361 -366 -86 -69 -99 -98 -62 -132 32 -29 59 -19 149 56 208 173 420
420 531 620 200 357 149 706 -138 952 -64 54 -192 118 -268 134 -69 14 -185
13 -243 -3z"/>
<path d="M4750 6201 c-75 -23 -162 -94 -203 -164 -13 -23 -39 -82 -57 -132
-63 -174 -146 -309 -248 -403 -74 -69 -206 -151 -316 -198 -89 -37 -101 -45
-104 -69 -2 -16 4 -35 15 -47 26 -29 72 -20 199 41 129 62 217 123 306 212
111 112 166 205 245 408 73 190 133 246 258 246 77 -1 125 -24 192 -92 85 -86
117 -204 89 -326 -25 -106 -118 -274 -232 -419 -85 -108 -275 -294 -391 -383
-56 -42 -105 -86 -109 -97 -9 -29 22 -68 54 -68 39 0 258 176 390 314 244 254
392 509 409 702 13 160 -64 325 -195 416 -83 58 -219 84 -302 59z"/>
<path d="M4784 5961 c-41 -25 -69 -62 -90 -119 -84 -231 -142 -329 -278 -470
-101 -105 -184 -164 -340 -243 -63 -32 -109 -62 -112 -73 -8 -23 26 -70 52
-74 24 -3 183 73 266 129 240 159 414 384 498 644 34 105 65 129 106 84 34
-38 26 -110 -24 -213 -132 -275 -358 -513 -644 -679 -26 -15 -52 -35 -57 -45
-12 -24 4 -60 33 -73 30 -14 70 5 191 89 198 138 350 288 466 461 178 265 213
427 117 537 -57 65 -124 81 -184 45z"/>
<path d="M5974 5475 c-12 -7 -31 -42 -44 -77 -32 -90 -105 -231 -161 -315 -55
-81 -63 -125 -28 -143 38 -21 66 -3 118 74 80 117 201 375 201 426 0 14 -38
50 -53 50 -7 0 -22 -7 -33 -15z"/>
<path d="M4275 3116 c-61 -19 -122 -62 -151 -105 -51 -78 -54 -106 -54 -487 0
-404 3 -425 83 -506 57 -59 107 -81 198 -86 142 -8 239 41 297 152 23 44 26
63 27 146 l0 95 -97 3 -98 3 0 -69 c0 -86 -13 -123 -49 -145 -47 -28 -88 -22
-127 17 l-34 34 0 351 c0 393 1 400 67 427 44 19 83 11 114 -22 21 -23 24 -37
27 -120 l4 -95 96 3 97 3 3 75 c7 172 -63 281 -208 324 -63 19 -139 20 -195 2z"/>
<path d="M1290 2525 l0 -586 178 4 c202 5 254 16 319 72 23 20 54 61 70 93
l28 57 0 360 0 360 -28 57 c-32 64 -80 111 -146 142 -41 19 -68 21 -233 24
l-188 4 0 -587z m360 386 c48 -35 50 -46 50 -381 0 -280 -2 -319 -18 -350 -23
-46 -72 -70 -144 -70 l-58 0 0 416 0 417 73 -7 c45 -4 81 -13 97 -25z"/>
<path d="M2080 2531 l0 -579 23 -5 c36 -9 465 -9 469 0 2 4 2 45 0 91 l-4 82
-149 0 -149 0 0 160 0 159 128 3 127 3 1 88 1 87 -129 0 -128 0 0 155 0 155
145 0 145 0 0 90 0 90 -240 0 -240 0 0 -579z"/>
<path d="M2690 3020 l0 -90 100 0 100 0 2 -492 3 -492 93 -4 92 -3 0 495 0
496 100 0 100 0 0 90 0 90 -295 0 -295 0 0 -90z"/>
<path d="M3422 2528 l3 -583 253 -3 252 -2 0 90 0 90 -155 0 -155 0 0 160 0
160 130 0 130 0 0 90 0 90 -130 0 -130 0 0 155 0 155 155 0 155 0 0 90 0 90
-255 0 -255 0 2 -582z"/>
<path d="M4790 3020 l0 -90 105 0 105 0 0 -495 0 -495 95 0 95 0 0 495 0 495
95 0 95 0 0 90 0 90 -295 0 -295 0 0 -90z"/>
<path d="M5530 2525 l0 -586 98 3 97 3 3 583 2 582 -100 0 -100 0 0 -585z"/>
<path d="M5880 3093 c0 -10 25 -144 55 -298 30 -154 77 -399 105 -545 28 -146
55 -275 60 -287 9 -22 15 -23 114 -23 l104 0 37 188 c155 788 186 940 191 960
6 22 5 22 -95 22 -96 0 -101 -1 -106 -22 -7 -33 -113 -684 -121 -745 -4 -29
-10 -51 -14 -48 -4 2 -10 33 -14 67 -3 35 -29 200 -56 368 -28 168 -53 322
-56 343 l-6 37 -99 0 c-88 0 -99 -2 -99 -17z"/>
<path d="M6690 2525 l0 -585 248 2 247 3 3 45 c2 25 1 64 -3 88 l-6 42 -150 0
-149 0 0 160 0 160 130 0 130 0 0 90 0 90 -124 0 c-104 0 -125 3 -130 16 -3 9
-6 78 -6 155 l0 139 150 0 150 0 0 90 0 90 -245 0 -245 0 0 -585z"/>
<path d="M7880 3108 c-1 -2 -52 -255 -114 -563 -63 -308 -115 -569 -117 -580
-4 -19 1 -20 96 -20 l99 0 21 115 20 115 110 3 111 3 19 -118 20 -118 103 -3
c96 -2 103 -1 98 15 -11 36 -246 1128 -246 1145 0 7 -219 12 -220 6z m160
-548 c16 -85 32 -170 36 -187 l7 -33 -87 0 c-47 0 -86 3 -86 8 0 4 9 54 20
112 11 58 29 160 40 228 11 67 21 126 21 130 1 4 6 -18 11 -48 5 -30 22 -125
38 -210z"/>
<path d="M8500 2525 l0 -586 93 3 92 3 3 583 2 582 -95 0 -95 0 0 -585z"/>
<path d="M2791 1560 c-39 -9 -77 -35 -105 -74 -17 -23 -21 -42 -21 -110 0 -75
3 -86 28 -119 37 -49 78 -69 141 -69 63 -1 110 22 136 65 26 42 25 44 -9 52
-23 5 -34 0 -59 -24 -34 -35 -67 -39 -112 -16 -43 22 -63 68 -58 127 10 104
117 143 179 66 12 -16 22 -19 47 -13 38 8 38 10 10 51 -38 56 -107 80 -177 64z"/>
<path d="M3227 1559 c-75 -20 -123 -77 -134 -160 -8 -60 5 -107 43 -148 45
-51 81 -64 154 -59 52 4 65 9 96 39 61 57 78 124 54 211 -11 40 -76 105 -112
112 -53 11 -75 12 -101 5z m110 -91 c77 -72 33 -218 -65 -218 -36 0 -80 30
-94 64 -51 123 69 238 159 154z"/>
<path d="M1790 1436 c0 -92 4 -136 16 -166 43 -107 210 -114 265 -10 16 29 19
57 19 167 l0 133 -35 0 -35 0 0 -122 c0 -79 -5 -132 -13 -148 -23 -47 -104
-53 -127 -9 -6 11 -12 77 -13 147 l-2 127 -37 3 -38 3 0 -125z"/>
<path d="M2230 1375 l0 -185 35 0 35 0 1 128 c0 102 3 123 12 109 7 -10 47
-68 90 -128 70 -97 82 -110 105 -107 l26 3 -1 180 -2 180 -35 3 -35 3 -3 -109
-3 -110 -78 109 c-73 103 -80 109 -112 109 l-35 0 0 -185z"/>
<path d="M3530 1552 c0 -17 113 -336 123 -350 6 -8 25 -12 46 -10 l36 3 62
175 c35 96 63 178 63 183 0 4 -17 7 -38 7 l-37 0 -44 -136 c-24 -74 -45 -133
-48 -131 -2 3 -23 63 -46 133 l-42 129 -37 3 c-21 2 -38 -1 -38 -6z"/>
<path d="M3980 1375 l0 -185 125 0 125 0 0 35 0 35 -90 0 -90 0 0 45 0 45 78
0 79 0 -5 30 -4 30 -74 0 -74 0 0 40 0 40 90 0 90 0 0 35 0 35 -125 0 -125 0
0 -185z"/>
<path d="M4359 1556 c-2 -2 -3 -86 -1 -186 l3 -181 32 3 c32 3 32 3 35 66 2
43 7 62 16 62 23 0 63 -38 90 -85 26 -43 29 -45 72 -45 l45 0 -47 66 -47 65
35 32 c44 41 54 81 33 135 -22 54 -67 72 -179 72 -45 0 -85 -2 -87 -4z m185
-82 c17 -16 21 -51 8 -71 -12 -19 -50 -29 -88 -25 l-34 4 0 54 0 54 49 0 c32
0 55 -6 65 -16z"/>
<path d="M4950 1525 l0 -34 58 -3 57 -3 0 -148 0 -147 38 0 37 0 0 150 0 150
55 0 55 0 0 35 0 35 -150 0 -150 0 0 -35z"/>
<path d="M5368 1375 l-3 -185 38 0 37 0 0 80 0 80 69 0 69 0 6 -31 c3 -17 6
-54 6 -81 l0 -49 33 3 32 3 3 183 2 182 -40 0 -40 0 0 -75 0 -75 -70 0 -70 0
0 75 0 75 -35 0 -34 0 -3 -185z"/>
<path d="M5800 1375 l0 -185 125 0 125 0 0 35 0 35 -90 0 -90 0 0 45 0 45 80
0 80 0 0 30 0 30 -80 0 -80 0 0 40 0 40 90 0 90 0 0 35 0 35 -125 0 -125 0 0
-185z"/>
<path d="M6360 1525 l0 -35 50 0 50 0 0 -150 0 -150 40 0 40 0 0 150 0 150 61
0 60 0 -3 33 -3 32 -147 3 -148 3 0 -36z"/>
<path d="M6757 1554 c-2 -5 -5 -89 -6 -186 l-2 -178 40 0 41 0 0 65 c0 36 3
65 8 65 33 -1 57 -20 89 -71 35 -57 37 -59 80 -59 l44 0 -46 67 -46 67 30 23
c63 50 62 150 -1 188 -25 14 -57 20 -129 23 -53 2 -99 0 -102 -4z m185 -81
c37 -34 16 -85 -42 -98 -56 -12 -70 0 -70 61 l0 54 47 0 c29 0 53 -6 65 -17z"/>
<path d="M7156 1552 c-3 -5 -4 -69 -3 -143 2 -149 11 -175 71 -206 41 -22 127
-21 161 1 55 36 65 68 65 219 l0 137 -35 0 -35 0 0 -130 c0 -126 -1 -132 -25
-155 -30 -30 -64 -32 -99 -4 -26 20 -26 22 -26 155 l0 134 -34 0 c-19 0 -37
-4 -40 -8z"/>
<path d="M7565 1550 c-3 -5 -3 -21 1 -35 6 -23 11 -25 61 -25 50 0 54 -2 53
-22 -1 -13 -2 -80 -1 -150 l1 -128 35 0 34 0 3 148 3 147 55 5 c54 5 55 6 58
38 l3 32 -150 0 c-84 0 -152 -4 -156 -10z"/>
<path d="M7970 1376 l0 -186 41 0 40 0 -1 53 c-4 116 -10 107 75 107 l75 0 0
-80 0 -80 35 0 35 0 0 186 0 185 -37 -3 -38 -3 3 -52 c6 -88 1 -93 -78 -93
l-69 0 -3 73 -3 72 -37 3 -38 3 0 -185z"/>
</g>
</svg>
